<svg xmlns="http://www.w3.org/2000/svg" width="784" height="444" viewBox="0 0 784 444">
<rect width="100%" height="100%" fill="#fbfbfb"/>
<text x="24" y="32" font-family="Arial, sans-serif" font-size="20" font-weight="700" fill="#202124">Latency Sensitivity</text>
<text x="24" y="56" font-family="Arial, sans-serif" font-size="12" fill="#5f6368">Rows: local ms/token, columns: network RTT ms</text>
<text x="176.0" y="74" text-anchor="middle" font-family="Arial, sans-serif" font-size="12" fill="#3c4043">3ms</text>
<text x="280.0" y="74" text-anchor="middle" font-family="Arial, sans-serif" font-size="12" fill="#3c4043">8ms</text>
<text x="384.0" y="74" text-anchor="middle" font-family="Arial, sans-serif" font-size="12" fill="#3c4043">15ms</text>
<text x="488.0" y="74" text-anchor="middle" font-family="Arial, sans-serif" font-size="12" fill="#3c4043">30ms</text>
<text x="592.0" y="74" text-anchor="middle" font-family="Arial, sans-serif" font-size="12" fill="#3c4043">60ms</text>
<text x="696.0" y="74" text-anchor="middle" font-family="Arial, sans-serif" font-size="12" fill="#3c4043">100ms</text>
<text x="108" y="120.0" text-anchor="end" font-family="Arial, sans-serif" font-size="12" fill="#3c4043">1.5</text>
<rect x="124" y="92" width="100" height="44" rx="6" fill="#4f9a68"/>
<text x="174.0" y="120.0" text-anchor="middle" font-family="Arial, sans-serif" font-size="13" font-weight="700" fill="#ffffff">64.5%</text>
<rect x="228" y="92" width="100" height="44" rx="6" fill="#4f9a68"/>
<text x="278.0" y="120.0" text-anchor="middle" font-family="Arial, sans-serif" font-size="13" font-weight="700" fill="#ffffff">59.4%</text>
<rect x="332" y="92" width="100" height="44" rx="6" fill="#4f9a68"/>
<text x="382.0" y="120.0" text-anchor="middle" font-family="Arial, sans-serif" font-size="13" font-weight="700" fill="#ffffff">52.3%</text>
<rect x="436" y="92" width="100" height="44" rx="6" fill="#4f9a68"/>
<text x="486.0" y="120.0" text-anchor="middle" font-family="Arial, sans-serif" font-size="13" font-weight="700" fill="#ffffff">37.0%</text>
<rect x="540" y="92" width="100" height="44" rx="6" fill="#d7954a"/>
<text x="590.0" y="120.0" text-anchor="middle" font-family="Arial, sans-serif" font-size="13" font-weight="700" fill="#ffffff">6.6%</text>
<rect x="644" y="92" width="100" height="44" rx="6" fill="#c84b4b"/>
<text x="694.0" y="120.0" text-anchor="middle" font-family="Arial, sans-serif" font-size="13" font-weight="700" fill="#ffffff">-34.1%</text>
<text x="108" y="168.0" text-anchor="end" font-family="Arial, sans-serif" font-size="12" fill="#3c4043">3</text>
<rect x="124" y="140" width="100" height="44" rx="6" fill="#4f9a68"/>
<text x="174.0" y="168.0" text-anchor="middle" font-family="Arial, sans-serif" font-size="13" font-weight="700" fill="#ffffff">52.3%</text>
<rect x="228" y="140" width="100" height="44" rx="6" fill="#4f9a68"/>
<text x="278.0" y="168.0" text-anchor="middle" font-family="Arial, sans-serif" font-size="13" font-weight="700" fill="#ffffff">47.2%</text>
<rect x="332" y="140" width="100" height="44" rx="6" fill="#4f9a68"/>
<text x="382.0" y="168.0" text-anchor="middle" font-family="Arial, sans-serif" font-size="13" font-weight="700" fill="#ffffff">40.1%</text>
<rect x="436" y="140" width="100" height="44" rx="6" fill="#8fa64a"/>
<text x="486.0" y="168.0" text-anchor="middle" font-family="Arial, sans-serif" font-size="13" font-weight="700" fill="#ffffff">24.8%</text>
<rect x="540" y="140" width="100" height="44" rx="6" fill="#c84b4b"/>
<text x="590.0" y="168.0" text-anchor="middle" font-family="Arial, sans-serif" font-size="13" font-weight="700" fill="#ffffff">-5.6%</text>
<rect x="644" y="140" width="100" height="44" rx="6" fill="#c84b4b"/>
<text x="694.0" y="168.0" text-anchor="middle" font-family="Arial, sans-serif" font-size="13" font-weight="700" fill="#ffffff">-46.2%</text>
<text x="108" y="216.0" text-anchor="end" font-family="Arial, sans-serif" font-size="12" fill="#3c4043">4.5</text>
<rect x="124" y="188" width="100" height="44" rx="6" fill="#4f9a68"/>
<text x="174.0" y="216.0" text-anchor="middle" font-family="Arial, sans-serif" font-size="13" font-weight="700" fill="#ffffff">40.1%</text>
<rect x="228" y="188" width="100" height="44" rx="6" fill="#4f9a68"/>
<text x="278.0" y="216.0" text-anchor="middle" font-family="Arial, sans-serif" font-size="13" font-weight="700" fill="#ffffff">35.0%</text>
<rect x="332" y="188" width="100" height="44" rx="6" fill="#8fa64a"/>
<text x="382.0" y="216.0" text-anchor="middle" font-family="Arial, sans-serif" font-size="13" font-weight="700" fill="#ffffff">27.9%</text>
<rect x="436" y="188" width="100" height="44" rx="6" fill="#d7954a"/>
<text x="486.0" y="216.0" text-anchor="middle" font-family="Arial, sans-serif" font-size="13" font-weight="700" fill="#ffffff">12.7%</text>
<rect x="540" y="188" width="100" height="44" rx="6" fill="#c84b4b"/>
<text x="590.0" y="216.0" text-anchor="middle" font-family="Arial, sans-serif" font-size="13" font-weight="700" fill="#ffffff">-17.8%</text>
<rect x="644" y="188" width="100" height="44" rx="6" fill="#c84b4b"/>
<text x="694.0" y="216.0" text-anchor="middle" font-family="Arial, sans-serif" font-size="13" font-weight="700" fill="#ffffff">-58.4%</text>
<text x="108" y="264.0" text-anchor="end" font-family="Arial, sans-serif" font-size="12" fill="#3c4043">6</text>
<rect x="124" y="236" width="100" height="44" rx="6" fill="#8fa64a"/>
<text x="174.0" y="264.0" text-anchor="middle" font-family="Arial, sans-serif" font-size="13" font-weight="700" fill="#ffffff">27.9%</text>
<rect x="228" y="236" width="100" height="44" rx="6" fill="#8fa64a"/>
<text x="278.0" y="264.0" text-anchor="middle" font-family="Arial, sans-serif" font-size="13" font-weight="700" fill="#ffffff">22.8%</text>
<rect x="332" y="236" width="100" height="44" rx="6" fill="#8fa64a"/>
<text x="382.0" y="264.0" text-anchor="middle" font-family="Arial, sans-serif" font-size="13" font-weight="700" fill="#ffffff">15.7%</text>
<rect x="436" y="236" width="100" height="44" rx="6" fill="#d7954a"/>
<text x="486.0" y="264.0" text-anchor="middle" font-family="Arial, sans-serif" font-size="13" font-weight="700" fill="#ffffff">0.5%</text>
<rect x="540" y="236" width="100" height="44" rx="6" fill="#c84b4b"/>
<text x="590.0" y="264.0" text-anchor="middle" font-family="Arial, sans-serif" font-size="13" font-weight="700" fill="#ffffff">-30.0%</text>
<rect x="644" y="236" width="100" height="44" rx="6" fill="#c84b4b"/>
<text x="694.0" y="264.0" text-anchor="middle" font-family="Arial, sans-serif" font-size="13" font-weight="700" fill="#ffffff">-70.6%</text>
<text x="108" y="312.0" text-anchor="end" font-family="Arial, sans-serif" font-size="12" fill="#3c4043">8</text>
<rect x="124" y="284" width="100" height="44" rx="6" fill="#d7954a"/>
<text x="174.0" y="312.0" text-anchor="middle" font-family="Arial, sans-serif" font-size="13" font-weight="700" fill="#ffffff">11.6%</text>
<rect x="228" y="284" width="100" height="44" rx="6" fill="#d7954a"/>
<text x="278.0" y="312.0" text-anchor="middle" font-family="Arial, sans-serif" font-size="13" font-weight="700" fill="#ffffff">6.6%</text>
<rect x="332" y="284" width="100" height="44" rx="6" fill="#c84b4b"/>
<text x="382.0" y="312.0" text-anchor="middle" font-family="Arial, sans-serif" font-size="13" font-weight="700" fill="#ffffff">-0.5%</text>
<rect x="436" y="284" width="100" height="44" rx="6" fill="#c84b4b"/>
<text x="486.0" y="312.0" text-anchor="middle" font-family="Arial, sans-serif" font-size="13" font-weight="700" fill="#ffffff">-15.8%</text>
<rect x="540" y="284" width="100" height="44" rx="6" fill="#c84b4b"/>
<text x="590.0" y="312.0" text-anchor="middle" font-family="Arial, sans-serif" font-size="13" font-weight="700" fill="#ffffff">-46.2%</text>
<rect x="644" y="284" width="100" height="44" rx="6" fill="#c84b4b"/>
<text x="694.0" y="312.0" text-anchor="middle" font-family="Arial, sans-serif" font-size="13" font-weight="700" fill="#ffffff">-86.9%</text>
<text x="108" y="360.0" text-anchor="end" font-family="Arial, sans-serif" font-size="12" fill="#3c4043">12</text>
<rect x="124" y="332" width="100" height="44" rx="6" fill="#c84b4b"/>
<text x="174.0" y="360.0" text-anchor="middle" font-family="Arial, sans-serif" font-size="13" font-weight="700" fill="#ffffff">-20.9%</text>
<rect x="228" y="332" width="100" height="44" rx="6" fill="#c84b4b"/>
<text x="278.0" y="360.0" text-anchor="middle" font-family="Arial, sans-serif" font-size="13" font-weight="700" fill="#ffffff">-25.9%</text>
<rect x="332" y="332" width="100" height="44" rx="6" fill="#c84b4b"/>
<text x="382.0" y="360.0" text-anchor="middle" font-family="Arial, sans-serif" font-size="13" font-weight="700" fill="#ffffff">-33.0%</text>
<rect x="436" y="332" width="100" height="44" rx="6" fill="#c84b4b"/>
<text x="486.0" y="360.0" text-anchor="middle" font-family="Arial, sans-serif" font-size="13" font-weight="700" fill="#ffffff">-48.3%</text>
<rect x="540" y="332" width="100" height="44" rx="6" fill="#c84b4b"/>
<text x="590.0" y="360.0" text-anchor="middle" font-family="Arial, sans-serif" font-size="13" font-weight="700" fill="#ffffff">-78.8%</text>
<rect x="644" y="332" width="100" height="44" rx="6" fill="#c84b4b"/>
<text x="694.0" y="360.0" text-anchor="middle" font-family="Arial, sans-serif" font-size="13" font-weight="700" fill="#ffffff">-119.4%</text>
</svg>